<svg width="36" height="36" viewBox="0 0 36 36" fill="none" xmlns="http://www.w3.org/2000/svg">
<path fill-rule="evenodd" clip-rule="evenodd" d="M0 9.06491C0 4.0585 4.0585 0 9.06491 0H26.9351C31.9415 0 36 4.0585 36 9.06491V26.9351C36 31.9415 31.9415 36 26.9351 36H9.06491C4.0585 36 0 31.9415 0 26.9351V9.06491ZM27.0494 11.1151C27.4408 10.4443 27.2144 9.5832 26.5437 9.19172C25.8729 8.80024 25.0118 9.02664 24.6203 9.69741L16.4382 23.7166L11.2847 19.5939C10.6783 19.1087 9.79332 19.207 9.30815 19.8135C8.82298 20.4199 8.92131 21.3049 9.52777 21.7901L14.7929 26.0021C15.0937 26.2476 15.4451 26.4238 15.8219 26.518C16.1994 26.6124 16.5931 26.6221 16.9747 26.5466C17.3514 26.4746 17.7083 26.323 18.0216 26.1018C18.3372 25.8791 18.6011 25.5911 18.7954 25.2573L27.0494 11.1151Z" fill="#62667A"/>
</svg>
