<svg width="40" height="40" viewBox="0 0 40 40" fill="none" xmlns="http://www.w3.org/2000/svg">
    <path fill-rule="evenodd" clip-rule="evenodd"
          d="M0 10.0721C0 4.50944 4.50944 0 10.0721 0H29.9279C35.4906 0 40 4.50944 40 10.0721V29.9279C40 35.4906 35.4906 40 29.9279 40H10.0721C4.50944 40 0 35.4906 0 29.9279V10.0721ZM30.0548 12.3501C30.4898 11.6048 30.2383 10.648 29.493 10.213C28.7477 9.77804 27.7909 10.0296 27.3559 10.7749L18.2646 26.3518L12.5386 21.771C11.8647 21.2319 10.8815 21.3411 10.3424 22.015C9.80332 22.6888 9.91257 23.6721 10.5864 24.2112L16.4365 28.8913C16.7708 29.164 17.1612 29.3598 17.5799 29.4645C17.9993 29.5693 18.4368 29.5802 18.8608 29.4963C19.2793 29.4163 19.6759 29.2478 20.024 29.002C20.3746 28.7545 20.6679 28.4345 20.8838 28.0637L30.0548 12.3501Z"
          fill="#38ADC4"/>
</svg>
