<svg xmlns="http://www.w3.org/2000/svg" width="40" height="40" viewBox="0 0 40 40" fill="none">
    <path fill-rule="evenodd" clip-rule="evenodd"
          d="M11.2777 2.94571C11.872 2.35143 12.8355 2.35143 13.4298 2.94571L28.5341 18.05C28.7935 18.2987 29.0007 18.5967 29.1435 18.9267C29.2902 19.2655 29.3659 19.6308 29.3659 20C29.3659 20.3692 29.2902 20.7345 29.1435 21.0733C29.0007 21.4033 28.7935 21.7013 28.5341 21.95L13.4298 37.0543C12.8355 37.6486 11.872 37.6486 11.2777 37.0543C10.6835 36.46 10.6835 35.4965 11.2777 34.9022L26.18 20L11.2777 5.09777C10.6835 4.5035 10.6835 3.53998 11.2777 2.94571Z"
          fill="white"/>
</svg>