<svg width="56" height="56" viewBox="0 0 56 56" fill="none" xmlns="http://www.w3.org/2000/svg">
<path fill-rule="evenodd" clip-rule="evenodd" d="M28.1978 3.5C29.4153 3.49998 30.4023 4.48695 30.4023 5.70446L30.4028 34.9961L40.3252 26.689C41.2587 25.9074 42.6491 26.0306 43.4307 26.9642C44.2122 27.8977 44.089 29.2881 43.1555 30.0696L29.6136 41.4071C28.7947 42.0926 27.6022 42.0926 26.7833 41.4071L13.2413 30.0696C12.3078 29.2881 12.1846 27.8977 12.9662 26.9642C13.7477 26.0306 15.1381 25.9074 16.0716 26.689L25.9938 34.996L25.9933 5.70454C25.9933 4.48703 26.9803 3.50002 28.1978 3.5ZM11.6641 50.2955C11.6641 49.078 12.6511 48.091 13.8686 48.091H42.527C43.7446 48.091 44.7315 49.078 44.7315 50.2955C44.7315 51.513 43.7446 52.5 42.527 52.5H13.8686C12.6511 52.5 11.6641 51.513 11.6641 50.2955Z" fill="white"/>
</svg>
