<svg xmlns="http://www.w3.org/2000/svg" width="56" height="56" viewBox="0 0 56 56" fill="none">
    <path d="M12.4329 7.63401C15.3101 6.61112 18.6463 7.25113 20.9492 9.55406C23.5647 12.1695 24.0353 16.1176 22.361 19.2126L47.3479 44.2023L44.0481 47.5021L19.0605 22.5141C15.9652 24.1898 12.0158 23.7196 9.39977 21.1035C7.09619 18.7999 6.45646 15.4625 7.48058 12.5847L12.6996 17.8037C14.0664 19.1705 16.2825 19.1705 17.6494 17.8037C19.0162 16.4368 19.0162 14.2207 17.6494 12.8539L12.4329 7.63401ZM36.6234 12.0289L44.0481 7.90416L47.3479 11.204L43.223 18.6286L39.0984 19.4536L34.1484 24.4033L30.8486 21.1035L35.7983 16.1537L36.6234 12.0289ZM20.9492 31.0029L24.249 34.3029L11.8746 46.6773C10.9634 47.5884 9.48604 47.5884 8.57482 46.6773C7.72869 45.831 7.66825 44.4968 8.3935 43.5809L8.57482 43.3775L20.9492 31.0029Z"
          fill="white"/>
</svg>