<svg width="40" height="40" viewBox="0 0 40 40" fill="none" xmlns="http://www.w3.org/2000/svg">
    <path fill-rule="evenodd" clip-rule="evenodd"
          d="M10.0721 3.10421C6.24597 3.10421 3.125 6.21073 3.125 10.0665V29.9335C3.125 33.7893 6.24597 36.8958 10.0721 36.8958H29.9279C33.754 36.8958 36.875 33.7893 36.875 29.9335V10.0665C36.875 6.21073 33.754 3.10421 29.9279 3.10421H10.0721ZM0 10.0665C0 4.51754 4.4988 0 10.0721 0H29.9279C35.5012 0 40 4.51754 40 10.0665V29.9335C40 35.4825 35.5012 40 29.9279 40H10.0721C4.4988 40 0 35.4825 0 29.9335V10.0665Z"
          fill="#F1F2F8"/>
</svg>
